<svg width="20" height="16" viewBox="0 0 20 16" fill="none" xmlns="http://www.w3.org/2000/svg">
<path d="M17.4786 13.3026C19.0455 11.8899 20 10.0328 20 8C20 5.88497 18.9669 3.96055 17.2855 2.52855V2.52828C17.2841 2.52662 17.2821 2.52607 17.281 2.52469C15.5297 1.03531 13.0759 0.081931 10.3466 0.00717241L10.3462 0.00689655L10.1514 0.00275862C10.101 0.00137931 10.0507 0 10 0C9.94931 0 9.89897 0.00137931 9.84862 0.00275862L9.65448 0.00689655L9.65414 0.00717241C6.92483 0.081931 4.47103 1.03531 2.71966 2.52469C2.71828 2.52607 2.71621 2.52662 2.71517 2.52828C2.71517 2.52828 2.71517 2.52855 2.71483 2.52883C1.0331 3.96055 0 5.88497 0 8C0 10.0328 0.954483 11.8899 2.52138 13.3026C2.52345 13.3051 2.52345 13.3079 2.52586 13.3103C2.53207 13.3172 2.54103 13.3206 2.54759 13.3269C4.30828 14.9015 6.83448 15.9159 9.65379 15.9931L9.65414 15.9934L9.84828 15.9975C9.89897 15.9986 9.94931 16 10 16C10.0507 16 10.101 15.9986 10.1514 15.9972L10.3455 15.9931L10.3459 15.9928C13.1683 15.9153 15.6972 14.899 17.4579 13.3211C17.4624 13.3164 17.4697 13.315 17.4738 13.3101C17.4766 13.3079 17.4766 13.3051 17.4786 13.3026ZM0.698276 8.27586H4.83724C4.87621 9.44524 5.16172 10.5815 5.67 11.6461C4.68931 11.9299 3.75172 12.3106 2.8731 12.7857C1.58103 11.5561 0.776897 9.98897 0.698276 8.27586ZM3.06138 3.04083C3.91931 3.48717 4.83276 3.84469 5.78552 4.11172C5.20207 5.24469 4.87931 6.46621 4.83724 7.72414H0.698276C0.78069 5.9291 1.65931 4.29462 3.06138 3.04083ZM19.3017 7.72414H15.1628C15.1207 6.46621 14.7979 5.24469 14.2145 4.11172C15.1672 3.84469 16.0807 3.48717 16.9386 3.04083C18.3407 4.29462 19.2193 5.9291 19.3017 7.72414ZM9.65517 4.12772C8.65828 4.1051 7.67966 3.98621 6.73414 3.77379C7.4331 2.62676 8.42 1.59145 9.65517 0.729379V4.12772ZM9.65517 4.67945V7.72414H5.5269C5.56931 6.52469 5.88379 5.36138 6.44621 4.28276C7.48276 4.52303 8.55897 4.656 9.65517 4.67945ZM10.3448 4.67945C11.441 4.656 12.5172 4.52331 13.5541 4.28276C14.1166 5.36138 14.431 6.52469 14.4734 7.72414H10.3448V4.67945ZM10.3448 4.12772V0.729379C11.58 1.59145 12.5669 2.62676 13.2659 3.77379C12.3203 3.98621 11.3417 4.1051 10.3448 4.12772ZM13.9341 3.60607C13.2717 2.49572 12.3524 1.48414 11.2141 0.617103C13.2334 0.828414 15.0503 1.5589 16.4497 2.63586C15.6552 3.03917 14.8124 3.36359 13.9341 3.60607ZM6.06586 3.60607C5.18759 3.36359 4.34483 3.03917 3.55069 2.63586C4.94966 1.5589 6.7669 0.828414 8.78621 0.617103C7.64759 1.48414 6.72828 2.49572 6.06586 3.60607ZM5.5269 8.27586H9.65517V11.045C8.51483 11.0692 7.39759 11.2116 6.32379 11.4701C5.83862 10.4618 5.56586 9.38455 5.5269 8.27586ZM9.65517 11.5967V15.2706C8.3331 14.3479 7.29655 13.2268 6.59172 11.9832C7.58034 11.7501 8.60724 11.6204 9.65517 11.5967ZM10.3448 15.2706V11.5967C11.3928 11.6201 12.4197 11.7501 13.4083 11.9829C12.7034 13.2268 11.6669 14.3479 10.3448 15.2706ZM10.3448 11.045V8.27586H14.4731C14.4341 9.38455 14.1614 10.4618 13.6759 11.4703C12.6024 11.2116 11.4852 11.0692 10.3448 11.045ZM15.1628 8.27586H19.3017C19.2231 9.98897 18.4193 11.5561 17.1269 12.7857C16.2483 12.3106 15.3107 11.9299 14.33 11.6461C14.8386 10.5815 15.1238 9.44524 15.1628 8.27586ZM3.34172 13.1989C4.15759 12.7652 5.02621 12.4166 5.93379 12.1559C6.60448 13.3586 7.56724 14.4546 8.78586 15.3829C6.66483 15.1608 4.76655 14.3663 3.34172 13.1989ZM11.2141 15.3829C12.4328 14.4549 13.3955 13.3589 14.0662 12.1559C14.9738 12.4166 15.8421 12.7652 16.6583 13.1989C15.2334 14.3663 13.3352 15.1608 11.2141 15.3829Z" fill="white"/>
</svg>
